# xmcd
#
# Track frame offsets: 
#        183
#        13045
#        26525
#        39360
#        52795
#        64148
#        75758
#        87053
#        98493
#        110545
#        124518
#        137318
#        148265
#        161480
#        172943
#        184285
#        195463
#        208128
#        218240
#        228478
#        240228
#        250828
#        264458
#        278720
#        290623
#        301123
#        314330
#
# Disc length: 4365 seconds
#
# Revision: 2
# Processed by: cddbd v1.5.2PL0 Copyright (c) Steve Scherf et al.
# Submitted via: ExactAudioCopy v0.95b4
#
DISCID=61110b1b
DTITLE=Lefty Frizzell - Life's Like Poetry - Disc 02 of 12
DYEAR=1992
DGENRE=Country
TTITLE0=I Love You (Though You're No Good) (recorded 1952 - released 1
TTITLE0=984)
TTITLE1=Don't Stay Away (Till Love Grows Cold) (1952)
TTITLE2=It's Just You (I Could Love Always) (1952)
TTITLE3=You're Here So Everything's Alright (1952)
TTITLE4=If You Can Spare The Time (I Won't Miss The Money) (1952)
TTITLE5=A King Without A Queen (recorded 1952 - released 1954)
TTITLE6=Forever (And Always) (1952)
TTITLE7=I Know You're Lonesome (While Waiting For Me) (1952)
TTITLE8=Lost Love Blues (recorded 1952 - released 1984)
TTITLE9=That's Me Without You (recorded 1952 - released 1984)
TTITLE10=Send Her Here To Be Mine (recorded 1952 - released 1984)
TTITLE11=Lost Love Blues (recorded 1952 - released 1965)
TTITLE12=That's Me Without You (recorded 1952 - released 1984)
TTITLE13=I Won't Be Good For Nothin' (recorded 1952 - released 1984)
TTITLE14=If I Lose You (I'll Lose My World) (recorded 1952 - released 
TTITLE14=1984)
TTITLE15=I'm An Old Old Man (Tryin' To Love While I Can) (1952)
TTITLE16=You're Just Mine (Only In My Dreams) (1952)
TTITLE17=I'll Try (recorded 1953 - released 1984)
TTITLE18=(Honey, Baby, Hurry) Bring Your Sweet Self Back To Me (1953)
TTITLE19=Time Changes Things (1953)
TTITLE20=All Of Me Loves All Of You (recorded 1953 - released 1984)
TTITLE21=California Blues (Blue Yodel, #4) (1953)
TTITLE22=Never No' Mo' Blues (1953)
TTITLE23=We Crucified Our Jesus (1953)
TTITLE24=When It Comes To Measuring Love (1953)
TTITLE25=Sleep Baby Sleep (1953)
TTITLE26=(I'm) Lonely And Blue (1953)
EXTD=Life's Like Poetry - Disc 02 of 12\n© 1992 Bear Family Records
EXTT0=
EXTT1=
EXTT2=
EXTT3=
EXTT4=
EXTT5=
EXTT6=
EXTT7=
EXTT8=
EXTT9=
EXTT10=
EXTT11=
EXTT12=
EXTT13=
EXTT14=
EXTT15=
EXTT16=
EXTT17=
EXTT18=
EXTT19=
EXTT20=
EXTT21=
EXTT22=
EXTT23=
EXTT24=
EXTT25=
EXTT26=
PLAYORDER=
